<svg xmlns="http://www.w3.org/2000/svg" xmlns:xlink="http://www.w3.org/1999/xlink" version="1.1" x="0px" y="0px" viewBox="0 0 95.76 119.7" enable-background="new 0 0 95.76 95.76" xml:space="preserve"><path fill-rule="evenodd" clip-rule="evenodd" d="M49.192,15.509c0.946-0.192,0.98,0.958,0.547,1.366  C48.793,17.067,48.759,15.917,49.192,15.509z"/><path fill-rule="evenodd" clip-rule="evenodd" fill="#000000" d="M45.093,16.602c0.835-0.197,0.996,0.279,1.64,0.273  c-0.839,0.436-1.061,1.491-1.094,2.733C45.114,18.83,44.517,17.704,45.093,16.602z"/><path fill-rule="evenodd" clip-rule="evenodd" d="M60.673,42.021c0.588,0.232,0.967,0.674,0.82,1.641  c-0.364,0.274-1.018,0.258-1.093,0.82C58.906,43.995,60.093,42.697,60.673,42.021z"/><path fill-rule="evenodd" clip-rule="evenodd" d="M69.146,43.115c0.083,1.268-0.48,1.89-1.641,1.914  C66.684,43.909,67.989,42.321,69.146,43.115z"/><path fill-rule="evenodd" clip-rule="evenodd" d="M60.127,48.582c-1.084,9.303-8.369,12.405-14.214,16.948  c-4.021,4.543-7.868,9.262-12.574,13.118c3.1-3.551,5.943-7.357,9.567-10.386c0.022-0.388,0.045-0.773-0.273-0.82  c0.616-0.84,1.938-0.978,2.187-2.187c0.612-0.299,1.37-0.453,1.913-0.82c2.952-2.754,6.675-4.749,9.294-7.926  C57.927,54.203,58.332,51.27,60.127,48.582z"/><path fill-rule="evenodd" clip-rule="evenodd" d="M36.346,78.648c0.212,1.307-0.57,1.617-1.64,1.641  C34.618,79.108,35.165,78.562,36.346,78.648z"/><path fill-rule="evenodd" clip-rule="evenodd" d="M39.899,78.922c0.597-0.05,0.869,0.223,0.82,0.819  c-0.49-0.034-0.577,0.335-1.094,0.273C39.51,79.444,39.813,79.292,39.899,78.922z"/><path fill-rule="evenodd" clip-rule="evenodd" d="M34.433,81.657c0,0.272,0,0.546,0,0.819c-0.571,0.115-0.724-0.187-1.094-0.273  C33.405,81.721,33.81,81.58,34.433,81.657z"/><path fill-rule="evenodd" clip-rule="evenodd" d="M40.992,83.022c1.169,0.38,1.892,1.208,3.28,1.367  c-1.518,0.881-3.935,0.522-5.467,0.547C39.346,83.834,40.685,84.67,40.992,83.022z"/><path fill-rule="evenodd" clip-rule="evenodd" fill="#000000" d="M28.419,86.575c-2.094,1.734-4.788,2.865-7.38,4.102  C22.893,88.838,25.982,86.934,28.419,86.575z"/><path fill-rule="evenodd" clip-rule="evenodd" d="M18.579,93.136c-0.795-1.027-2.365-1.279-2.46-3.007  c2.121-3.009,7.857-3.066,10.387-6.013c1.182-1.378,1.836-4.836,3.279-6.834c1.419-1.964,3.768-4.004,5.741-6.014  c6.964-7.096,16.836-12.319,19.406-23.507c2.065-8.992-3.188-13.99-7.106-19.407c-3.12-4.313-4.995-8.225-6.287-14.76  c-2.084-2.107-4.453-3.929-6.013-6.561c1.337-1.942,3.103-3.458,5.739-4.1c-0.154,3.255,3.897,5.603,4.101,8.473  c1.271,0.178,0.407-1.779,1.093-2.186c1.02-0.292,0.433,1.024,1.367,0.819c16.188,2.125,25.033,11.593,30.615,24.327  c0.986,5.35,2.051,10.339,1.912,17.22c-0.24,11.849-7.627,20.748-13.395,27.334c-5.398,3.347-12.009,5.484-17.493,8.746  c-5.431,0.8-15.602,3.938-21.594,0.273C23.299,90.036,24.063,92.135,18.579,93.136z M65.867,29.175  c1.799,2.849,4.195,6.554,3.554,10.933c0.019-3.952-3.467-5.806-3.009-9.293c-1.709-0.568-2.803-1.752-2.732-4.1  c-0.537-0.466-1.367-0.639-1.641-1.367c0.027-2.017-1.596-2.334-3.007-3.826c-2.894-3.063-6.037-6.561-10.933-6.833  c0,0.911,0,1.822,0,2.733c1.055,0.039,2.399-0.213,2.732,0.547c-0.004,0.815-2.024-0.386-1.64,0.82  c0.546,0.307,2.769-0.482,2.733,1.093c-1.062,0.122-1.714-0.685-1.913,0.546c0.297,1.119,2.933-0.711,3.007,1.094  c-0.547,0-1.094,0-1.64,0c1.791,6.317,7.248,8.969,8.473,15.853c-0.557,0.172-0.077,1.381-1.094,1.094  c-0.708-0.789,0.124-1.695,0-2.733c-3.44-3.938-6.399-8.361-9.293-12.847c-0.872-0.162-0.846,0.513-1.366,0  c0.2-1.083-1.336-2.135-2.461-2.734c1.167,4.328,4.313,5.937,6.834,9.021c1.797,2.197,3.863,5.479,4.92,7.927  c3.641,8.435-3.336,19.902-7.927,24.054c-7.612,6.886-16.777,12.448-20.5,21.866c1.461-0.653,2.026-2.329,2.46-3.28  c0.638-0.083,1.178-0.583,1.367,0.273c0.217,1.411-2.712,1.104-1.914,2.188c1.256-0.459,3.162,1.405,3.554,1.914  c1.452-0.188,2.206-1.073,3.554-1.367c0.162-0.487-0.802-1.136,0-1.366c0.317,0.229,0.732,0.359,1.366,0.273  c14.58-4.849,25.146-13.72,29.247-28.701c0.375-1.371-0.327-2.986,1.365-3.553C69.331,65.344,55.991,75.47,43.18,81.383  c0.553,0.994,2.044,1.052,2.733,1.912c-1.935,0.948-3.07-1.066-4.647-1.366c-2.512,1.042-4.642,2.464-7.38,3.28  c4.276,2.24,13.139-0.602,17.768-1.914c0.727-1.229,0.983-0.583,1.366-1.366c4.86-2.187,12.234-4.383,16.401-9.841  c0.224-0.294,0.062-1.041,0.273-1.366c1.601-2.494,4.309-4.783,5.191-7.653c1.89-6.128,3.27-20.599-0.273-23.78  c0.408-0.414,0.441-1.2,0.547-1.914c-3.3-9.116-9.965-18.624-18.859-22.14c3.386,3.083,6.23,6.708,8.473,10.934  c0.481,0.157,1.606-0.33,1.64,0.273c-0.475,0.527-1.897,0.106-1.913,1.093C66.604,26.969,67.208,29.293,65.867,29.175z"/><text x="0" y="110.76" fill="#000000" font-size="5px" font-weight="bold" font-family="'Helvetica Neue', Helvetica, Arial-Unicode, Arial, Sans-serif">Created by James Cottell</text><text x="0" y="115.76" fill="#000000" font-size="5px" font-weight="bold" font-family="'Helvetica Neue', Helvetica, Arial-Unicode, Arial, Sans-serif">from the Noun Project</text></svg>