<?xml version="1.0" encoding="UTF-8"?>
<svg id="Outlined" xmlns="http://www.w3.org/2000/svg" viewBox="0 0 681.09 560.74">
  <defs>
    <style>
      .cls-1 {
        fill: none;
      }

      .cls-1, .cls-2 {
        stroke-width: 0px;
      }

      .cls-2 {
        fill: #fff;
      }
    </style>
  </defs>
  <path class="cls-1" d="m208.36,139.02c1.88-3.33,1.28-6.02-1.84-7.78-1.28-.72-2.58-1.02-3.82-.77l6.09-10.79-5.73-3.24-.57,1,1.39.79-20.85,36.94-1.39-.78-.57,1,7.13,4.02.56-1-1.39-.79,14.76-26.15c.96-.26,1.76-.25,2.54.19,1.22.69,1.11,1.8.42,3.02l-14.67,25.99,5.73,3.23.57-1-1.39-.79,13.03-23.09Z"/>
  <polygon class="cls-1" points="195.59 113.55 189.56 124.23 193.68 126.56 200.28 114.87 183.58 105.45 176.99 117.14 181.11 119.46 187.14 108.78 189.14 109.91 168.29 146.85 166.9 146.07 166.33 147.07 173.56 151.15 174.13 150.15 172.74 149.36 193.59 112.42 195.59 113.55"/>
  <path class="cls-1" d="m222.1,140.03c-3.67-2.07-7.73-.99-9.49,2.13l-10.24,18.13c-1.76,3.12-.59,7.15,3.08,9.23,3.68,2.07,7.74.99,9.49-2.13l1.95-3.45-4.34-2.45-3.33,5.9c-.69,1.22-1.98,1.82-3.2,1.13-1.23-.69-1.38-2.1-.69-3.33l6.25-11.07,8.23,4.65,5.37-9.52c1.76-3.11.59-7.15-3.08-9.22Zm.12,4.33l-6.18,10.96-3.9-2.2,6.19-10.96c.69-1.23,1.98-1.82,3.2-1.13,1.23.69,1.39,2.1.69,3.33Z"/>
  <g>
    <path class="cls-2" d="m148.38,175.16c-5.76-3.76-14.85-3.28-19.94,2.1-6.07,6.43-4.83,11,2.81,15.76-1.51,1.24-9.36,1.11-17.09-.03-10.83,14.07-17.41,26.66-22.74,43.64,7.39,4.66,26.64,15.94,31.42,2.04,2.04-5.93-.03-10.98-8.19-15.79,1.16-1.51,8.61-1.85,16.37-1.03,5.55-9.25,8.84-13.26,15.85-21.69,9.85-11.84,7.68-20.98,1.52-25Zm0,0c-5.76-3.76-14.85-3.28-19.94,2.1-6.07,6.43-4.83,11,2.81,15.76-1.51,1.24-9.36,1.11-17.09-.03-10.83,14.07-17.41,26.66-22.74,43.64,7.39,4.66,26.64,15.94,31.42,2.04,2.04-5.93-.03-10.98-8.19-15.79,1.16-1.51,8.61-1.85,16.37-1.03,5.55-9.25,8.84-13.26,15.85-21.69,9.85-11.84,7.68-20.98,1.52-25Zm0,0c-5.76-3.76-14.85-3.28-19.94,2.1-6.07,6.43-4.83,11,2.81,15.76-1.51,1.24-9.36,1.11-17.09-.03-10.83,14.07-17.41,26.66-22.74,43.64,7.39,4.66,26.64,15.94,31.42,2.04,2.04-5.93-.03-10.98-8.19-15.79,1.16-1.51,8.61-1.85,16.37-1.03,5.55-9.25,8.84-13.26,15.85-21.69,9.85-11.84,7.68-20.98,1.52-25Zm76.23,37.2c-4.56-1.95-10.7-.81-13.28,3.47-3.87,6.41-2.53,9.59,3.16,12.26-.61.78-5.84,1.91-12.03,2.5-1.91,3.25-2.83,4.87-4.62,8.15,4,1.72,6.01,2.54,10,4.11,5.53,2.16,12.61.93,17.21-7.82,1.11-2.12,1.68-3.18,2.81-5.31,4.99-9.4,1.72-15.23-3.25-17.36Zm72.94,43.57c-5.3,7.72-8.1,11.54-13.5,19.47,5.78.3,9.82.87,15.42,1.92-1.13-8.61-1.47-12.86-1.92-21.39Zm0,0c-5.3,7.72-8.1,11.54-13.5,19.47,5.78.3,9.82.87,15.42,1.92-1.13-8.61-1.47-12.86-1.92-21.39Zm-72.94-43.57c-4.56-1.95-10.7-.81-13.28,3.47-3.87,6.41-2.53,9.59,3.16,12.26-.61.78-5.84,1.91-12.03,2.5-1.91,3.25-2.83,4.87-4.62,8.15,4,1.72,6.01,2.54,10,4.11,5.53,2.16,12.61.93,17.21-7.82,1.11-2.12,1.68-3.18,2.81-5.31,4.99-9.4,1.72-15.23-3.25-17.36Zm-76.23-37.2c-5.76-3.76-14.85-3.28-19.94,2.1-6.07,6.43-4.83,11,2.81,15.76-1.51,1.24-9.36,1.11-17.09-.03-10.83,14.07-17.41,26.66-22.74,43.64,7.39,4.66,26.64,15.94,31.42,2.04,2.04-5.93-.03-10.98-8.19-15.79,1.16-1.51,8.61-1.85,16.37-1.03,5.55-9.25,8.84-13.26,15.85-21.69,9.85-11.84,7.68-20.98,1.52-25Zm0,0c-5.76-3.76-14.85-3.28-19.94,2.1-6.07,6.43-4.83,11,2.81,15.76-1.51,1.24-9.36,1.11-17.09-.03-10.83,14.07-17.41,26.66-22.74,43.64,7.39,4.66,26.64,15.94,31.42,2.04,2.04-5.93-.03-10.98-8.19-15.79,1.16-1.51,8.61-1.85,16.37-1.03,5.55-9.25,8.84-13.26,15.85-21.69,9.85-11.84,7.68-20.98,1.52-25Zm76.23,37.2c-4.56-1.95-10.7-.81-13.28,3.47-3.87,6.41-2.53,9.59,3.16,12.26-.61.78-5.84,1.91-12.03,2.5-1.91,3.25-2.83,4.87-4.62,8.15,4,1.72,6.01,2.54,10,4.11,5.53,2.16,12.61.93,17.21-7.82,1.11-2.12,1.68-3.18,2.81-5.31,4.99-9.4,1.72-15.23-3.25-17.36Zm72.94,43.57c-5.3,7.72-8.1,11.54-13.5,19.47,5.78.3,9.82.87,15.42,1.92-1.13-8.61-1.47-12.86-1.92-21.39Zm210.93,12.41c-1.73-6.46-6.03-7.45-14.18-4.34-.19-1.56,4.17-6.81,9.02-11.89-3.24-8.72-5.17-13.14-9.99-22.34-4.74-9.52-15.68-15.71-25.88-11.2-6.65,2.94-10.97,9.82-8.01,15.55,3.54,6.87,8.64,8.13,16.8,4.96.45,1.63-3.43,7.04-8.98,11.83,3.66,8.76,5.16,13.05,7.74,21.52,3.64,11.91,14.11,13.36,22.17,10.43,7.16-2.6,12.76-9.12,11.31-14.51Zm0,0c-1.73-6.46-6.03-7.45-14.18-4.34-.19-1.56,4.17-6.81,9.02-11.89-3.24-8.72-5.17-13.14-9.99-22.34-4.74-9.52-15.68-15.71-25.88-11.2-6.65,2.94-10.97,9.82-8.01,15.55,3.54,6.87,8.64,8.13,16.8,4.96.45,1.63-3.43,7.04-8.98,11.83,3.66,8.76,5.16,13.05,7.74,21.52,3.64,11.91,14.11,13.36,22.17,10.43,7.16-2.6,12.76-9.12,11.31-14.51Zm-210.93-12.41c-5.3,7.72-8.1,11.54-13.5,19.47,5.78.3,9.82.87,15.42,1.92-1.13-8.61-1.47-12.86-1.92-21.39Zm-72.94-43.57c-4.56-1.95-10.7-.81-13.28,3.47-3.87,6.41-2.53,9.59,3.16,12.26-.61.78-5.84,1.91-12.03,2.5-1.91,3.25-2.83,4.87-4.62,8.15,4,1.72,6.01,2.54,10,4.11,5.53,2.16,12.61.93,17.21-7.82,1.11-2.12,1.68-3.18,2.81-5.31,4.99-9.4,1.72-15.23-3.25-17.36Zm-76.23-37.2c-5.76-3.76-14.85-3.28-19.94,2.1-6.07,6.43-4.83,11,2.81,15.76-1.51,1.24-9.36,1.11-17.09-.03-10.83,14.07-17.41,26.66-22.74,43.64,7.39,4.66,26.64,15.94,31.42,2.04,2.04-5.93-.03-10.98-8.19-15.79,1.16-1.51,8.61-1.85,16.37-1.03,5.55-9.25,8.84-13.26,15.85-21.69,9.85-11.84,7.68-20.98,1.52-25Zm387.68-100.18c-33.9-22-48.85-37.6-47.67-45.64-8.44,36.63-18.93,100.52-34.39,135.51-16.9,38.27-67.05,66.84-107.02,43.79-68.93-39.73-28.47-177.43,35.8-82.9,3.66,2.81,7.11,14.1,12.38,11.01,3.46,29.13,26.79-64.23,10.98-54.91.24,23.74-13.38,13.26-8.35-3.48,10.59-24.91-19.45-48.47-39.85-49.87-8.5-7.25-82.38-2.97-54.3,9.81,23.92,15.63-28.1,7.18-34.2,17.91-3.18,6.54,5.67,2.31,8.81,3.5,16.47,4.88,13.02,6.89-.43,12.79-10.04,5.82-26.89,12.14-27.66,25.05,8.79-.68,34.41-11.02,14.4,7.29-15.66,13.34-15.23,34.7-11.08,52.86,5.65,5.35,12.03-15.63,12.72-8.97,2.1,20.17,0,53.61,17.02,64.72-67.43-44-70.38-136.67-94.55-190.69C129.36,110.26,35.97,175.41,39.68,302.53c3.66,13.46,29.64-67.88,74.63-29.07,26.84,26.23-21.2,104.01-2.91,145.87-.71,6.7,7.1,11.19,6.63,2.05,1.68-35.04,22.38-91.1,56.75-100.9,21.02,21.93,7.78,83.97,14.66,112.41,19.27,87.15,6.7-58.64,42.17-83.36,32.04-22.33,70.22-29.95,95.95-8.72,31.22,25.73,31.91,29.67,44.31,65.38,22.09,63.59-50.1,108.95-91.35,62.84-31.36-31.09,13.35-86.78,30.09-38.99-1,6.04-18.15,10.23-12.24,16.1,54.39-1.4,61.75,21.52,54.39-1.4-30.32-115.06-157.42-72.8-120.76,36.92,43.57,92.33,174.3,64.39,197.04-35.2,11.76-51.47-39.27-96.68-11.33-109.27,44.85-20.22,61.97,80.26,68.12,128.16,18.04-29.81,1.05-97.89,10.44-130.83,6.52-17.59,35.66-20.9,45.87-9.07,16.83,19.5,30.58,56.87,33.74,77.12.36,2.31,3.62,29.22,5.55,27.74,10.94-36.09-6.37-97.72-6.11-133.06.37-50,46.16-35.87,64.76-6.55,10.67-99.73-38.92-173.47-104-215.74Zm-331.3,46.88c4.03,2.27,5.31,6.7,3.38,10.11l-5.89,10.44-9.03-5.1-6.86,12.14c-.76,1.35-.59,2.9.76,3.65,1.34.76,2.75.1,3.51-1.24l3.65-6.47,4.76,2.69-2.14,3.78c-1.92,3.42-6.37,4.61-10.41,2.34-4.03-2.28-5.31-6.7-3.38-10.12l11.23-19.89c1.93-3.42,6.38-4.61,10.41-2.34Zm-20.89-25.88l6.29,3.55-6.68,11.84c1.36-.27,2.79.05,4.19.84,3.42,1.93,4.08,4.88,2.02,8.53l-14.29,25.33,1.52.87-.63,1.1-6.29-3.54,16.09-28.51c.76-1.34.88-2.56-.46-3.31-.86-.48-1.73-.49-2.79-.21l-16.19,28.69,1.52.87-.61,1.1-7.82-4.41.63-1.1,1.52.86,22.87-40.52-1.52-.87.63-1.1Zm-39.67,32.5l1.52.86,22.87-40.52-2.19-1.24-6.61,11.72-4.52-2.54,7.23-12.82,18.32,10.33-7.24,12.82-4.52-2.56,6.61-11.72-2.19-1.24-22.87,40.52,1.52.87-.63,1.1-7.93-4.48.63-1.1Zm-33.95,134.58c-13.22-8.49-28.63-16.56-42.63-25.32,4.48,2.5,3.07-14.11,5.23-21.14,5.29-13.91,11.42-25.83,21.34-37.08.68-4.11,3.51-8.3,6.52-11.43,4.38-4.56,9.38-8.28,14.67-11.09,5.67-6.56,13.57-17.94,9.84-21.47,4.5.19,8.61,1.74,12.02,4.4,3.17,2.46,5.63,6.02,6.46,10.06,7.38.45,14.32,2.93,20.45,7.16,14.18,9.8,23.3,29.64,11.69,45.02-8.01,10.39-15.88,20.95-22.19,32.49.44,4.32-.9,9.1-2.37,12.9-8.02,20.72-22.59,27.35-41.03,15.49Zm121.84,48.16c.24,1.51-1.5,1.97-4.21,1.48-2.7-.49-6.42-1.81-9.32-4.27-1.25,1.6-3.65,2.01-7.91.86-3.65-.98-9.03-3.17-15.08-6.84,6.32,1.85,6.72-12.98,8.05-18.94.75-3.35,1.16-4.96,2.05-8.12,3.02-10.63-1.48-14.63-7.01-16.94-3.48-1.35-5.22-2.05-8.72-3.5-4.15,9.5-7.31,20.39-8.86,30.63-1.69,10.15,3.72,12.97,7.81,14.56.58,1.47-.9,1.46-3.75.35-2.85-1.12-7.11-3.18-10.61-6.15-1.02,1.1-3.17.67-7.62-1.37-3.81-1.74-9.7-4.77-16.22-9.2,6.34,2.91,6.63-13.04,8.4-19.53,4.89-14.68,10.76-27.88,19.42-40.78-.19-4.76,1.95-10.27,4.2-13.4,2.73-3.82,6.59-6.79,10.66-8.97,3.5-6.42,6.63-14.49,3.3-16.6,4.4-.34,8.61.48,12.14,2.39,3.65,1.99,6.3,5.09,7.77,8.87,8.33-.12,16.22,1.57,22.37,4.33,12.89,5.79,17.39,21.03,11.28,33.61-2.74,5.8-4.1,8.63-6.71,14.36-2.87,6.33-7.21,10.45-12.58,12.78,1.75,3.81,1.94,7.77.71,11.47-3.17,9.54-4.52,14.52-6.3,25.65-1.52,9.5,2.8,12.48,6.76,13.28Zm94.33,5.62c-3.64,3.52-13.05,4.25-26.01.1,4.34-.04,4.17-5.19,3.86-10.82-1.13-14.24-18.91-22.92-30.51-14.9-3.72,6.32-2.96,9.37,5.56,10.51-.33,1.04-7.72,4.65-14.72,7.02-1.1,4.11,1.43,6.47,4.67,6.88-1.23,2.74-10.45,2.58-14.82-1.71-4.98,2.96-13.9,2.05-20.98-2.87,3.4.42,5.47-3.39,8.61-7.02-1.32-7.7,6.54-19,15.05-23.49,9.72-12.88,19.9-25.36,29.9-38.02,2.8-3.69,8.23-12.99,7.43-17.34-.76-1.21-1.59-2.15-2.78-2.41,4.18-1.21,8.12-1.34,11.41-.64,2.4.5,5.35,2,7.18,3.57,2.56-1.03,5.16-1.02,7.21-.81,2.57.27,4.97,1.45,5.53,3.02-3.48-.22-5.48,3.05-4.55,10.51,3.2,23.24,7.76,45.48,15.01,67.84,2.51,7.14,6.15,10.18,10.62,10.03-1.58,3.07-11.36,4.06-17.67.57Zm106.58,1.97c-4,.29-7.77-.34-10.87-1.63-1.91,1.95-5.23,2.94-8.39,3.31-3.17.37-6.16-.01-6.92-1.28,2.5-.43,6.6-4.12,5.54-11.01-2.46,6.03-9.39,9.72-20.7,11.01-14.63,1.67-37.41-2.51-40.18-20.29-.76-10.88-1.23-21.82-1.51-32.72-2.46-3.18-3.24-7.34-3.37-10.49-.79-19.21,21.48-28.65,36.88-30.91,14.68-2.16,37.34-.26,43.3,16.27,1.43,3.96-11.13,14.04-16.92,14.84-1.24.18-2.13-.11-2.33-.91-3.04-12.02-12.9-15.34-20.97-14.57-7.17.69-13.73,4.69-13.02,10.1.84,6.48,5.3,8.98,14.3,8.26-.08,1.48-5.66,5.17-12.35,7.99.97,8.67,1.4,13.03,2.31,21.63,1.28,12.08,10.75,15.82,19.11,14.91,7.45-.81,13.88-5.34,13.03-10.61-.32-1.94-.48-2.93-.8-4.89-.42.05-.63.08-1.03.12-9.47,1.11-14.47,2.25-14.21,5.51-3.86-.26-5.65-7.51-1.25-11.52-5.04-2.86-6.48-8.38-2.73-15.68,8.95,6.59,24.26,2.62,34.5,1.04,3.63-.57,8.14-.19,12.7,1.04-5.82,1.02-4.05,14.55-3.19,19.38.73,4.18,1.07,6.26,1.71,10.39.74,4.77,3.6,17.31,9.08,17.58-3.92,1.79-7.89,2.85-11.73,3.13Zm66.37-20.03c-12.83,4.44-45.46,10.52-51.42-8.15-1.74-10.76-4.12-21.68-7.16-32.14-3.54-2.29-5.55-6.1-6.57-9.43-5.91-19.24,4.78-39.85,21.85-49.04,16.29-8.79,40.6-9.53,51.78,8.04,6.54,11.45,11.8,22.06,16.68,34.28,3.06,1.99,5.07,5.56,5.92,8.78,5.51,20.72-12.53,41.27-31.08,47.67Zm119.38-66.17c-2.63,2.03-5.82,3.59-8.02,3.08-2.47,3.53-7.69,8.11-13.05,11.39-5.01,3.05-9.99,5.07-13.09,4.98-8.12-16.3-19.72-30.19-31.78-43.65,5.92,13.99,10.62,27.5,12.09,42.74.73,7.44,2.36,10.36,5.88,8.58-.42,1.79-2.67,3.86-4.8,5.01-2.14,1.16-4.08,1.5-5.28.16-1.14,2.62-4.67,5.76-9.17,8.27-3.85,2.15-8.12,3.66-12.56,4.04,5.81-3.39,5.27-17.94,4.26-22.9-4.22-19.71-12.56-36.59-22.74-53.81-4.95-7.44-12.89-19.08-22.68-18.99,2.07-4.96,4.78-8.55,7.88-10.74,3.61-2.57,7.93-3.4,11.87-2.31-.34-3.65,1.46-6.48,3.65-8.12,2.33-1.73,5.34-2.17,7.49-.55,20.53,16.77,41.17,33.76,59.18,53.3-4.82-15.27-12.88-28.36-21.61-41.63-5.89-8.01-15.27-20.52-26.06-20.26,1.79-5.65,4.37-9.73,7.53-12.22,3.69-2.92,8.3-3.87,12.79-2.79-.71-4.04.97-7.16,3.36-9.08,2.38-1.92,5.67-2.45,8.11-.65-3.17,2.87.1,9.86,8.22,19.32,17.78,21.92,34.53,44.45,37.53,73.4.78,7.37,2.95,9.51,6.14,6.91-.4,1.88-2.47,4.49-5.11,6.52Zm-124.46,31.37c-.19-1.56,4.17-6.81,9.02-11.89-3.24-8.72-5.17-13.14-9.99-22.34-4.74-9.52-15.68-15.71-25.88-11.2-6.65,2.94-10.97,9.82-8.01,15.55,3.54,6.87,8.64,8.13,16.8,4.96.45,1.63-3.43,7.04-8.98,11.83,3.66,8.76,5.16,13.05,7.74,21.52,3.64,11.91,14.11,13.36,22.17,10.43,7.16-2.6,12.76-9.12,11.31-14.51-1.73-6.46-6.03-7.45-14.18-4.34Zm-210.25,11.41c5.78.3,9.82.87,15.42,1.92-1.13-8.61-1.47-12.86-1.92-21.39-5.3,7.72-8.1,11.54-13.5,19.47Zm-59.43-63.04c-4.56-1.95-10.7-.81-13.28,3.47-3.87,6.41-2.53,9.59,3.16,12.26-.61.78-5.84,1.91-12.03,2.5-1.91,3.25-2.83,4.87-4.62,8.15,4,1.72,6.01,2.54,10,4.11,5.53,2.16,12.61.93,17.21-7.82,1.11-2.12,1.68-3.18,2.81-5.31,4.99-9.4,1.72-15.23-3.25-17.36Zm-76.23-37.2c-5.76-3.76-14.85-3.28-19.94,2.1-6.07,6.43-4.83,11,2.81,15.76-1.51,1.24-9.36,1.11-17.09-.03-10.83,14.07-17.41,26.66-22.74,43.64,7.39,4.66,26.64,15.94,31.42,2.04,2.04-5.93-.03-10.98-8.19-15.79,1.16-1.51,8.61-1.85,16.37-1.03,5.55-9.25,8.84-13.26,15.85-21.69,9.85-11.84,7.68-20.98,1.52-25Zm0,0c-5.76-3.76-14.85-3.28-19.94,2.1-6.07,6.43-4.83,11,2.81,15.76-1.51,1.24-9.36,1.11-17.09-.03-10.83,14.07-17.41,26.66-22.74,43.64,7.39,4.66,26.64,15.94,31.42,2.04,2.04-5.93-.03-10.98-8.19-15.79,1.16-1.51,8.61-1.85,16.37-1.03,5.55-9.25,8.84-13.26,15.85-21.69,9.85-11.84,7.68-20.98,1.52-25Zm76.23,37.2c-4.56-1.95-10.7-.81-13.28,3.47-3.87,6.41-2.53,9.59,3.16,12.26-.61.78-5.84,1.91-12.03,2.5-1.91,3.25-2.83,4.87-4.62,8.15,4,1.72,6.01,2.54,10,4.11,5.53,2.16,12.61.93,17.21-7.82,1.11-2.12,1.68-3.18,2.81-5.31,4.99-9.4,1.72-15.23-3.25-17.36Zm72.94,43.57c-5.3,7.72-8.1,11.54-13.5,19.47,5.78.3,9.82.87,15.42,1.92-1.13-8.61-1.47-12.86-1.92-21.39Zm0,0c-5.3,7.72-8.1,11.54-13.5,19.47,5.78.3,9.82.87,15.42,1.92-1.13-8.61-1.47-12.86-1.92-21.39Zm-72.94-43.57c-4.56-1.95-10.7-.81-13.28,3.47-3.87,6.41-2.53,9.59,3.16,12.26-.61.78-5.84,1.91-12.03,2.5-1.91,3.25-2.83,4.87-4.62,8.15,4,1.72,6.01,2.54,10,4.11,5.53,2.16,12.61.93,17.21-7.82,1.11-2.12,1.68-3.18,2.81-5.31,4.99-9.4,1.72-15.23-3.25-17.36Zm-76.23-37.2c-5.76-3.76-14.85-3.28-19.94,2.1-6.07,6.43-4.83,11,2.81,15.76-1.51,1.24-9.36,1.11-17.09-.03-10.83,14.07-17.41,26.66-22.74,43.64,7.39,4.66,26.64,15.94,31.42,2.04,2.04-5.93-.03-10.98-8.19-15.79,1.16-1.51,8.61-1.85,16.37-1.03,5.55-9.25,8.84-13.26,15.85-21.69,9.85-11.84,7.68-20.98,1.52-25Zm0,0c-5.76-3.76-14.85-3.28-19.94,2.1-6.07,6.43-4.83,11,2.81,15.76-1.51,1.24-9.36,1.11-17.09-.03-10.83,14.07-17.41,26.66-22.74,43.64,7.39,4.66,26.64,15.94,31.42,2.04,2.04-5.93-.03-10.98-8.19-15.79,1.16-1.51,8.61-1.85,16.37-1.03,5.55-9.25,8.84-13.26,15.85-21.69,9.85-11.84,7.68-20.98,1.52-25Zm76.23,37.2c-4.56-1.95-10.7-.81-13.28,3.47-3.87,6.41-2.53,9.59,3.16,12.26-.61.78-5.84,1.91-12.03,2.5-1.91,3.25-2.83,4.87-4.62,8.15,4,1.72,6.01,2.54,10,4.11,5.53,2.16,12.61.93,17.21-7.82,1.11-2.12,1.68-3.18,2.81-5.31,4.99-9.4,1.72-15.23-3.25-17.36Zm0,0c-4.56-1.95-10.7-.81-13.28,3.47-3.87,6.41-2.53,9.59,3.16,12.26-.61.78-5.84,1.91-12.03,2.5-1.91,3.25-2.83,4.87-4.62,8.15,4,1.72,6.01,2.54,10,4.11,5.53,2.16,12.61.93,17.21-7.82,1.11-2.12,1.68-3.18,2.81-5.31,4.99-9.4,1.72-15.23-3.25-17.36Zm-76.23-37.2c-5.76-3.76-14.85-3.28-19.94,2.1-6.07,6.43-4.83,11,2.81,15.76-1.51,1.24-9.36,1.11-17.09-.03-10.83,14.07-17.41,26.66-22.74,43.64,7.39,4.66,26.64,15.94,31.42,2.04,2.04-5.93-.03-10.98-8.19-15.79,1.16-1.51,8.61-1.85,16.37-1.03,5.55-9.25,8.84-13.26,15.85-21.69,9.85-11.84,7.68-20.98,1.52-25Z"/>
    <path class="cls-2" d="m204.14,122.96c-1.34-.76-2.75-.11-3.51,1.24l-6.79,12.02,4.28,2.41,6.78-12.02c.77-1.35.59-2.9-.76-3.65Z"/>
  </g>
</svg>